<svg xmlns="http://www.w3.org/2000/svg" viewBox="0 0 400 300" role="img"><rect width="400" height="300" fill="#e7e1d5"/><rect x="60" y="80" width="280" height="150" rx="4" fill="#fff" stroke="#cbc3b2"/><line x1="200" y1="80" x2="200" y2="230" stroke="#d8d0c0" stroke-width="2"/><rect x="80" y="98" width="90" height="60" rx="3" fill="#dfe6d6"/><rect x="70" y="110" width="70" height="4" rx="2" fill="#c9c3b8"/><rect x="70" y="124" width="70" height="4" rx="2" fill="#c9c3b8"/><rect x="70" y="138" width="70" height="4" rx="2" fill="#c9c3b8"/><rect x="70" y="152" width="70" height="4" rx="2" fill="#c9c3b8"/><rect x="70" y="166" width="70" height="4" rx="2" fill="#c9c3b8"/><rect x="70" y="180" width="70" height="4" rx="2" fill="#c9c3b8"/><rect x="70" y="194" width="70" height="4" rx="2" fill="#c9c3b8"/><rect x="226" y="110" width="70" height="4" rx="2" fill="#c9c3b8"/><rect x="226" y="124" width="70" height="4" rx="2" fill="#c9c3b8"/><rect x="226" y="138" width="70" height="4" rx="2" fill="#c9c3b8"/><rect x="226" y="152" width="70" height="4" rx="2" fill="#c9c3b8"/><rect x="226" y="166" width="70" height="4" rx="2" fill="#c9c3b8"/><rect x="226" y="180" width="70" height="4" rx="2" fill="#c9c3b8"/><rect x="226" y="194" width="70" height="4" rx="2" fill="#c9c3b8"/><rect x="14" y="14" width="75" height="28" rx="14" fill="#1b1a2e" opacity="0.9"/><text x="51.5" y="33" text-anchor="middle" fill="#fff" font-size="14" font-family="sans-serif" font-weight="700">펼침면</text><text x="200" y="290" text-anchor="middle" font-family="sans-serif" font-size="11" fill="#000" opacity="0.3" letter-spacing="1">AnigameMate · 예시 이미지</text></svg>
